<svg width="24" height="24" viewBox="0 0 29 19" fill="none" xmlns="http://www.w3.org/2000/svg">
<path d="M28.5 12.5875C28.5 13.3 27.075 13.775 25.4125 14.0125C24.3438 11.9938 22.2063 10.45 19.7125 9.38125C19.95 9.025 20.1875 8.7875 20.425 8.43125H21.375C25.0562 8.3125 28.5 10.5688 28.5 12.5875ZM8.075 8.3125H7.125C3.44375 8.3125 0 10.5688 0 12.5875C0 13.3 1.425 13.775 3.0875 14.0125C4.15625 11.9938 6.29375 10.45 8.7875 9.38125L8.075 8.3125ZM14.25 9.5C16.8625 9.5 19 7.3625 19 4.75C19 2.1375 16.8625 0 14.25 0C11.6375 0 9.5 2.1375 9.5 4.75C9.5 7.3625 11.6375 9.5 14.25 9.5ZM14.25 10.6875C9.38125 10.6875 4.75 13.775 4.75 16.625C4.75 19 14.25 19 14.25 19C14.25 19 23.75 19 23.75 16.625C23.75 13.775 19.1187 10.6875 14.25 10.6875ZM21.0188 7.125H21.375C23.3937 7.125 24.9375 5.58125 24.9375 3.5625C24.9375 1.54375 23.3937 0 21.375 0C20.7812 0 20.3063 0.11875 19.8313 0.35625C20.7812 1.54375 21.375 3.0875 21.375 4.75C21.375 5.58125 21.2563 6.4125 21.0188 7.125ZM7.125 7.125H7.48125C7.24375 6.4125 7.125 5.58125 7.125 4.75C7.125 3.0875 7.71875 1.54375 8.66875 0.35625C8.19375 0.11875 7.71875 0 7.125 0C5.10625 0 3.5625 1.54375 3.5625 3.5625C3.5625 5.58125 5.10625 7.125 7.125 7.125Z" fill="#ffffff"/>
</svg>
