<svg width="24" height="24" viewBox="0 0 30 23" fill="none" xmlns="http://www.w3.org/2000/svg">
<path d="M29.25 9.34375H26.25V6.46875C26.25 6.07344 25.9125 5.75 25.5 5.75H24C23.5875 5.75 23.25 6.07344 23.25 6.46875V9.34375H20.25C19.8375 9.34375 19.5 9.66719 19.5 10.0625V11.5C19.5 11.8953 19.8375 12.2188 20.25 12.2188H23.25V15.0938C23.25 15.4891 23.5875 15.8125 24 15.8125H25.5C25.9125 15.8125 26.25 15.4891 26.25 15.0938V12.2188H29.25C29.6625 12.2188 30 11.8953 30 11.5V10.0625C30 9.66719 29.6625 9.34375 29.25 9.34375ZM10.5 11.5C13.8141 11.5 16.5 8.92598 16.5 5.75C16.5 2.57402 13.8141 0 10.5 0C7.18594 0 4.5 2.57402 4.5 5.75C4.5 8.92598 7.18594 11.5 10.5 11.5ZM14.7 12.9375H13.9172C12.8766 13.3957 11.7188 13.6562 10.5 13.6562C9.28125 13.6562 8.12813 13.3957 7.08281 12.9375H6.3C2.82187 12.9375 0 15.6418 0 18.975V20.8438C0 22.0342 1.00781 23 2.25 23H18.75C19.9922 23 21 22.0342 21 20.8438V18.975C21 15.6418 18.1781 12.9375 14.7 12.9375Z" fill="white"/>
</svg>
