<svg width="29" height="28" viewBox="0 0 29 28" fill="none" xmlns="http://www.w3.org/2000/svg">
<path d="M18.75 5.67192C20.125 5.67192 21.25 6.74121 21.25 8.04812C21.2492 8.60983 21.0391 9.15312 20.657 9.58159C20.2749 10.0101 19.7454 10.296 19.1625 10.3887L16.275 7.64417C16.4875 6.52735 17.5125 5.67192 18.75 5.67192ZM18.75 3.29571C15.9875 3.29571 13.75 5.42241 13.75 8.04812C13.75 8.26198 13.7875 8.46396 13.8125 8.66594L18.1 12.7411C18.3125 12.7649 18.525 12.8005 18.75 12.8005C21.5125 12.8005 23.75 10.6738 23.75 8.04812C23.75 5.42241 21.5125 3.29571 18.75 3.29571ZM20.8625 15.3668L28.1625 22.3054H28.75V19.9292C28.75 17.3866 24.3 15.7708 20.8625 15.3668ZM16.2625 17.7074L18.6 19.9292H11.25C11.35 19.644 12.35 18.7292 14.8875 18.0638L16.2625 17.7074V17.7074ZM1.7625 0.574951L0 2.25018L5 7.00259V10.4243H1.25V12.8005H5V16.3649H7.5V12.8005H11.1L14.2375 15.7827C11.4875 16.4955 8.75 17.9094 8.75 19.9292V22.3054H21.1L26.1 27.0578L27.8625 25.3826L1.7625 0.574951ZM7.5 10.4243V9.3788L8.6 10.4243H7.5Z" fill="red"/>
</svg>
