<svg width="23" height="24" viewBox="0 0 23 24" fill="none" xmlns="http://www.w3.org/2000/svg">
<path d="M21.9703 13.7401C21.5995 13.2282 21.3998 12.6122 21.3998 11.9801C21.3998 11.348 21.5995 10.732 21.9703 10.2201L22.7303 9.17009C22.8232 9.04188 22.8844 8.89343 22.9087 8.73696C22.9331 8.58049 22.9199 8.42048 22.8703 8.27009C22.8202 8.12128 22.7364 7.98608 22.6253 7.87505C22.5143 7.76403 22.3791 7.68019 22.2303 7.63009L21.0003 7.23009C20.3978 7.03573 19.8726 6.65494 19.5005 6.14269C19.1284 5.63043 18.9288 5.01321 18.9303 4.38009V3.08009C18.9302 2.92226 18.8927 2.76669 18.8209 2.62612C18.7492 2.48554 18.6451 2.36395 18.5174 2.27129C18.3896 2.17863 18.2417 2.11753 18.0858 2.09299C17.9299 2.06845 17.7704 2.08116 17.6203 2.13009L16.3803 2.53009C15.7783 2.72489 15.1301 2.72437 14.5285 2.5286C13.9268 2.33283 13.4024 1.95184 13.0303 1.44009L12.2703 0.390093C12.1733 0.268401 12.05 0.170138 11.9098 0.102604C11.7696 0.0350698 11.6159 0 11.4603 0C11.3047 0 11.151 0.0350698 11.0108 0.102604C10.8705 0.170138 10.7473 0.268401 10.6503 0.390093L9.8903 1.44009C9.5182 1.95184 8.99382 2.33283 8.39214 2.5286C7.79046 2.72437 7.14229 2.72489 6.5403 2.53009L5.3003 2.13009C5.15024 2.08116 4.99073 2.06845 4.83481 2.09299C4.6789 2.11753 4.531 2.17863 4.40323 2.27129C4.27546 2.36395 4.17143 2.48554 4.09966 2.62612C4.02789 2.76669 3.99042 2.92226 3.9903 3.08009V4.38009C3.99183 5.01321 3.79216 5.63043 3.4201 6.14269C3.04804 6.65494 2.52284 7.03573 1.9203 7.23009L0.690299 7.63009C0.54149 7.68019 0.406287 7.76403 0.29526 7.87505C0.184234 7.98608 0.100395 8.12128 0.0502989 8.27009C0.000710461 8.42048 -0.0124558 8.58049 0.0118837 8.73696C0.0362232 8.89343 0.0973726 9.04188 0.190299 9.17009L0.950299 10.2201C1.32114 10.732 1.52081 11.348 1.52081 11.9801C1.52081 12.6122 1.32114 13.2282 0.950299 13.7401L0.190299 14.7901C0.0973726 14.9183 0.0362232 15.0668 0.0118837 15.2232C-0.0124558 15.3797 0.000710461 15.5397 0.0502989 15.6901C0.100395 15.8389 0.184234 15.9741 0.29526 16.0851C0.406287 16.1962 0.54149 16.28 0.690299 16.3301L1.9203 16.7301C2.52284 16.9245 3.04804 17.3052 3.4201 17.8175C3.79216 18.3298 3.99183 18.947 3.9903 19.5801V20.8801C3.99042 21.0379 4.02789 21.1935 4.09966 21.3341C4.17143 21.4746 4.27546 21.5962 4.40323 21.6889C4.531 21.7816 4.6789 21.8427 4.83481 21.8672C4.99073 21.8917 5.15024 21.879 5.3003 21.8301L6.5303 21.4301C7.13357 21.232 7.7842 21.2309 8.38817 21.4268C8.99215 21.6227 9.51819 22.0056 9.8903 22.5201L10.6503 23.5701C10.7437 23.6972 10.8656 23.8006 11.0064 23.8718C11.1471 23.9431 11.3026 23.9802 11.4603 23.9802C11.618 23.9802 11.7735 23.9431 11.9142 23.8718C12.055 23.8006 12.1769 23.6972 12.2703 23.5701L13.0303 22.5201C13.403 22.0063 13.9291 21.624 14.5329 21.4281C15.1366 21.2323 15.787 21.233 16.3903 21.4301L17.6203 21.8301C17.7704 21.879 17.9299 21.8917 18.0858 21.8672C18.2417 21.8427 18.3896 21.7816 18.5174 21.6889C18.6451 21.5962 18.7492 21.4746 18.8209 21.3341C18.8927 21.1935 18.9302 21.0379 18.9303 20.8801V19.5801C18.9288 18.947 19.1284 18.3298 19.5005 17.8175C19.8726 17.3052 20.3978 16.9245 21.0003 16.7301L22.2303 16.3301C22.3791 16.28 22.5143 16.1962 22.6253 16.0851C22.7364 15.9741 22.8202 15.8389 22.8703 15.6901C22.9199 15.5397 22.9331 15.3797 22.9087 15.2232C22.8844 15.0668 22.8232 14.9183 22.7303 14.7901L21.9703 13.7401ZM16.1703 10.6871L11.1703 15.6871C10.9828 15.8746 10.7285 15.9799 10.4633 15.9799C10.1981 15.9799 9.94383 15.8746 9.7563 15.6871L6.7563 12.6871C6.66079 12.5948 6.58461 12.4845 6.5322 12.3625C6.47979 12.2405 6.4522 12.1093 6.45105 11.9765C6.44989 11.8437 6.4752 11.712 6.52548 11.5891C6.57576 11.4662 6.65001 11.3546 6.7439 11.2607C6.8378 11.1668 6.94945 11.0926 7.07234 11.0423C7.19524 10.992 7.32692 10.9667 7.4597 10.9678C7.59248 10.969 7.7237 10.9966 7.8457 11.049C7.96771 11.1014 8.07805 11.1776 8.1703 11.2731L10.4603 13.5661L14.7533 9.27309C14.9419 9.09093 15.1945 8.99014 15.4567 8.99242C15.7189 8.9947 15.9697 9.09987 16.1551 9.28527C16.3405 9.47068 16.4457 9.7215 16.448 9.98369C16.4503 10.2459 16.3495 10.4985 16.1673 10.6871H16.1703Z" fill="white"/>
</svg>
